<?xml version="1.0" encoding="utf-8"?>
<!-- Generator: Adobe Illustrator 28.0.0, SVG Export Plug-In . SVG Version: 6.00 Build 0)  -->
<svg version="1.1" id="Layer_1" xmlns="http://www.w3.org/2000/svg" xmlns:xlink="http://www.w3.org/1999/xlink" x="0px" y="0px"
	 viewBox="0 0 30 48.4" style="enable-background:new 0 0 30 48.4;" xml:space="preserve">
<style type="text/css">
	.st0{stroke:#000000;stroke-width:1.0663;stroke-linecap:round;stroke-linejoin:round;stroke-miterlimit:10;}
	.st1{fill:none;stroke:#000000;stroke-width:1.0663;stroke-linecap:round;stroke-linejoin:round;stroke-miterlimit:10;}
</style>
<g>
	<path class="st0" d="M15.8,2.8L15.8,2.8c-7.4,0-13.3,6-13.3,13.3c0,3.7,1.5,7,3.9,9.4c1.9,1.9,3,4.2,3.6,6.6h11.7
		c0.5-2.4,1.7-4.7,3.6-6.6c2.4-2.4,3.9-5.8,3.9-9.4C29.1,8.8,23.2,2.8,15.8,2.8z M12,19.9l-2.8,2.8c-3.6-3.6-3.6-9.5,0-13.2l2.8,2.8
		C10,14.4,10,17.8,12,19.9z"/>
	<path class="st1" d="M12,19.9c-2.1-2.1-2.1-5.4,0-7.5L9.2,9.6c-3.6,3.6-3.6,9.5,0,13.2L12,19.9z"/>
	<path class="st0" d="M21.3,36.1h-11v3.8c0,3.1,2.5,5.5,5.5,5.5s5.5-2.5,5.5-5.5V36.1L21.3,36.1z"/>
</g>
</svg>
