<?xml version="1.0" encoding="utf-8"?>
<!-- Generator: Adobe Illustrator 28.0.0, SVG Export Plug-In . SVG Version: 6.00 Build 0)  -->
<svg version="1.1" id="Layer_1" xmlns="http://www.w3.org/2000/svg" xmlns:xlink="http://www.w3.org/1999/xlink" x="0px" y="0px"
	 viewBox="0 0 30 30" style="enable-background:new 0 0 30 30;" xml:space="preserve">
<g>
	<path d="M21.4,3.2c-0.2-0.1-0.4-0.1-0.6,0l0,0c-0.1,0.1-0.2,0.1-0.2,0.2l-1.4,2.4C19,6,19,6.2,19,6.4s0.1,0.3,0.3,0.4
		c0.2,0.1,0.5,0.1,0.7,0c0.1-0.1,0.2-0.1,0.2-0.2l1.4-2.4c0.1-0.1,0.1-0.3,0.1-0.5C21.6,3.5,21.5,3.3,21.4,3.2z"/>
	<path d="M8.4,3.2c0.2-0.1,0.4-0.1,0.6,0l0,0c0.1,0.1,0.2,0.1,0.2,0.2l1.4,2.4c0.1,0.1,0.1,0.3,0.1,0.5s-0.1,0.3-0.3,0.4
		c-0.2,0.1-0.5,0.1-0.7,0C9.8,6.6,9.7,6.6,9.6,6.5L8.2,4.1C8.1,4,8.1,3.8,8.1,3.6C8.1,3.5,8.2,3.3,8.4,3.2z"/>
	<path d="M5.4,9.7c0.1,0,0.1,0,0.2,0c0.2,0,0.3-0.1,0.4-0.3C6.1,9,6,8.7,5.7,8.5L3.3,7.1C3.2,7,3,7,2.9,7h0C2.6,7,2.5,7.1,2.4,7.3
		C2.3,7.4,2.3,7.6,2.3,7.8c0,0.2,0.1,0.3,0.3,0.4L5,9.6C5.2,9.6,5.3,9.7,5.4,9.7z"/>
	<path d="M27.6,7.4C27.5,7.2,27.3,7,27,7h0c-0.1,0-0.2,0-0.3,0.1l-2.4,1.4c-0.1,0.1-0.2,0.2-0.3,0.4c0,0.2,0,0.4,0.1,0.5
		c0.1,0.2,0.3,0.3,0.6,0.3c0.1,0,0.2,0,0.3-0.1l2.4-1.4c0.1-0.1,0.2-0.2,0.3-0.4C27.7,7.7,27.7,7.5,27.6,7.4z"/>
	<path d="M14.9,1.9c-0.2,0-0.4,0.1-0.5,0.3l0,0c-0.1,0.1-0.1,0.2-0.1,0.3l0,2.8c0,0.2,0.1,0.3,0.2,0.5S14.7,6,14.9,6
		c0.2,0,0.5-0.1,0.6-0.3c0.1-0.1,0.1-0.2,0.1-0.3l0-2.8c0-0.2-0.1-0.3-0.2-0.5C15.3,1.9,15.1,1.9,14.9,1.9z"/>
	<path d="M8.1,24.3v3.6h14.2v-3.6c0-2.2-1.5-3.9-3.4-3.9h-7.3C9.7,20.3,8.1,22.1,8.1,24.3z"/>
	<path d="M15.2,18.7c2.5,0,4.5-2.1,4.5-4.5s-2.1-4.5-4.5-4.5s-4.5,2.1-4.5,4.5C10.7,16.7,12.7,18.7,15.2,18.7z"/>
	<path d="M5.5,19.4c2,0,3.6-1.6,3.6-3.6s-1.6-3.6-3.6-3.6s-3.6,1.6-3.6,3.6S3.6,19.4,5.5,19.4z"/>
	<path d="M24.9,19.4c2,0,3.6-1.6,3.6-3.6s-1.6-3.5-3.6-3.5c-2,0-3.6,1.6-3.6,3.6S22.9,19.4,24.9,19.4z"/>
	<path d="M3.9,20.7c-1.4,0-2.7,1.4-2.7,3.1v2.9h6.6v-2.3c0-1.5,0.6-2.8,1.4-3.6L3.9,20.7L3.9,20.7z"/>
	<path d="M26.5,20.7h-5.3c0.9,0.9,1.4,2.2,1.4,3.6v2.3h6.6v-2.9C29.2,22,28,20.7,26.5,20.7z"/>
</g>
</svg>
