<?xml version="1.0" encoding="utf-8"?>
<!-- Generator: Adobe Illustrator 28.0.0, SVG Export Plug-In . SVG Version: 6.00 Build 0)  -->
<svg version="1.1"
	 id="Layer_1" xmlns:svg="http://www.w3.org/2000/svg" xmlns:inkscape="http://www.inkscape.org/namespaces/inkscape" xmlns:rdf="http://www.w3.org/1999/02/22-rdf-syntax-ns#" xmlns:dc="http://purl.org/dc/elements/1.1/" xmlns:cc="http://creativecommons.org/ns#" xmlns:sodipodi="http://sodipodi.sourceforge.net/DTD/sodipodi-0.dtd"
	 xmlns="http://www.w3.org/2000/svg" xmlns:xlink="http://www.w3.org/1999/xlink" x="0px" y="0px" viewBox="0 0 30 25.3"
	 style="enable-background:new 0 0 30 25.3;" xml:space="preserve">
<g transform="translate(0,-952.36218)">
	<path d="M4.6,954.6c-1,0-1.8,0.8-1.8,1.8v11.9c0,1,0.8,1.8,1.8,1.8h3.6L7.6,976l5.9-5.9h8.3c1,0,1.8-0.8,1.8-1.8v-11.9
		c0-1-0.8-1.8-1.8-1.8H4.6z M6.7,957.9h13.1c0.3,0,0.6,0.3,0.6,0.6s-0.3,0.6-0.6,0.6H6.7c-0.3,0-0.6-0.3-0.6-0.6
		S6.4,957.9,6.7,957.9z M6.7,961.7h13.1c0.3,0,0.6,0.3,0.6,0.6s-0.3,0.6-0.6,0.6H6.7c-0.3,0-0.6-0.3-0.6-0.6S6.4,961.7,6.7,961.7z
		 M24.2,964.7v3.6c0,1.3-1.1,2.4-2.4,2.4h-5.6v0.9c0,0.7,0.5,1.2,1.2,1.2h4.7l3.3,3.3l-0.6-3.3H26c0.7,0,1.2-0.5,1.2-1.2v-5.7
		c0-0.7-0.5-1.2-1.2-1.2L24.2,964.7z M6.7,965.6h13.1c0.3,0,0.6,0.3,0.6,0.6s-0.3,0.6-0.6,0.6H6.7c-0.3,0-0.6-0.3-0.6-0.6
		S6.4,965.6,6.7,965.6z"/>
</g>
</svg>
