<?xml version="1.0" encoding="utf-8"?>
<!-- Generator: Adobe Illustrator 28.0.0, SVG Export Plug-In . SVG Version: 6.00 Build 0)  -->
<svg version="1.1" id="Layer_1" xmlns="http://www.w3.org/2000/svg" xmlns:xlink="http://www.w3.org/1999/xlink" x="0px" y="0px"
	 viewBox="0 0 30 30" style="enable-background:new 0 0 30 30;" xml:space="preserve">
<g>
	<g>
		<path d="M10.4,14c-0.2-0.6-0.8-1-1.5-1.1H3.2c-0.1,0-0.1,0-0.2,0c-0.6,0.1-1.1,0.7-1,1.3L1.9,25.6c0,0,0,0.1,0,0.1
			C2.1,26.5,2.7,27,3.5,27h7.4c0.1,0,0.1,0,0.1,0c0.6-0.1,1.1-0.6,1.1-1.3L10.4,14C10.5,14,10.5,14,10.4,14z M29.2,17.8
			c-0.1-0.8-0.4-1.5-1.1-1.9c0.4-0.3,0.7-0.8,0.7-1.3c0.1-1-0.2-2-0.9-2.8c-0.6-0.6-1.4-1-2.2-0.9h-5.3c0-0.8,0-2,0.1-3
			c0.1-1.5-0.8-3.4-1.6-4.4c-0.4-0.5-0.9-0.8-1.4-0.9c-0.1,0-0.3,0-0.4,0c-1,0-2.1,0.4-2.4,1.2c-0.1,0.4,0,0.8,0.1,1.2
			C15,5.7,15,6.4,14.9,7.2c-0.3,1.6-2.7,5.5-3.5,6.2L13,25.6c1.1,0.4,3.6,1.3,4.9,1.3h6.6c0.4,0,1.9-0.1,2.4-1.4
			c0.2-0.6,0.2-1.1-0.1-1.7c0-0.1,0-0.1,0-0.1v0c0.8-0.2,1.4-0.8,1.5-1.6c0.2-0.7,0-1.5-0.4-2.1C28.8,19.7,29.3,18.9,29.2,17.8z
			 M22.5,22.5l-2.4-1.7l-2.4,1.7l0.9-2.8l-2.4-1.7h3l0.9-2.8l0.9,2.8h3l-2.4,1.7L22.5,22.5z"/>
	</g>
</g>
</svg>
