<?xml version="1.0" encoding="utf-8"?>
<!-- Generator: Adobe Illustrator 28.0.0, SVG Export Plug-In . SVG Version: 6.00 Build 0)  -->
<svg version="1.1" id="Layer_1" xmlns="http://www.w3.org/2000/svg" xmlns:xlink="http://www.w3.org/1999/xlink" x="0px" y="0px"
	 viewBox="0 0 30 29.7" style="enable-background:new 0 0 30 29.7;" xml:space="preserve">
<g>
	<path d="M26.8,22.4l-1.3-1.6c-0.6-0.8-1-1.8-1-2.8v-3.8c0-4-2.6-7.5-6.3-8.7c0.2-0.5,0.4-1,0.4-1.5c-0.1-1.8-1.5-3.2-3.4-3.2
		s-3.3,1.5-3.3,3.3c0,0.6,0.1,1.1,0.4,1.5c-3.6,1.3-6.3,4.7-6.3,8.7v3.8c0,1-0.3,2-1,2.8l-1.3,1.5c-0.3,0.3-0.3,0.8-0.1,1.2
		c0.2,0.4,0.6,0.6,1,0.6h21.1c0.5,0,0.9-0.2,1-0.6C27.1,23.2,27.1,22.7,26.8,22.4z M14.3,4.1c0-0.6,0.5-1,1-1s1,0.5,1,1s-0.5,1-1,1
		S14.3,4.6,14.3,4.1z"/>
	<path d="M15.7,25.4H8.5c-0.4,0-0.7,0.3-0.6,0.7c0.5,1.8,2.2,3.1,4.1,3.1s3.6-1.3,4.1-3.1C16.4,25.8,16.1,25.4,15.7,25.4L15.7,25.4z
		"/>
</g>
</svg>
