<svg width="144" height="141" viewBox="0 0 144 141" fill="none" xmlns="http://www.w3.org/2000/svg">
<g id="noun-quote-6236574 1">
<path id="Vector" d="M107.856 61.6322C112.464 53.1362 119.376 44.3522 128.736 35.1362C129.6 34.2722 129.744 33.1202 129.456 31.9682C129.024 30.9602 128.016 30.2402 126.72 30.2402C98.6405 30.2402 76.8965 61.0562 76.8965 87.5522C76.8965 94.8962 79.9205 101.376 84.6725 106.128C89.4245 110.88 95.9045 113.904 103.248 113.904C117.792 113.904 129.6 102.096 129.6 87.5522C129.6 74.4482 120.24 63.7922 107.856 61.6322Z" fill="#1E81C4"/>
<path id="Vector_2" d="M45.3604 61.6318C49.9684 53.1358 56.8804 44.3518 66.2404 35.1358C67.1044 34.2718 67.3924 33.1198 66.9604 31.9678C66.5284 30.9598 65.5204 30.2398 64.3684 30.2398C36.0004 30.0958 14.4004 60.9118 14.4004 87.5518C14.4004 94.8958 17.4244 101.376 22.0324 106.128C26.7844 110.88 33.4084 113.904 40.7524 113.904C55.2964 113.904 67.1044 102.096 67.1044 87.5518C67.1044 74.4478 57.6004 63.7918 45.3604 61.6318Z" fill="#1E81C4"/>
</g>
</svg>
