<svg width="144" height="141" viewBox="0 0 144 141" fill="none" xmlns="http://www.w3.org/2000/svg">
<g id="noun-quote-6236574 2">
<path id="Vector" d="M36.1435 79.3678C31.5355 87.8638 24.6235 96.6478 15.2635 105.864C14.3995 106.728 14.2555 107.88 14.5435 109.032C14.9755 110.04 15.9835 110.76 17.2795 110.76C45.3595 110.76 67.1035 79.9438 67.1035 53.4478C67.1035 46.1038 64.0795 39.6238 59.3275 34.8718C54.5755 30.1198 48.0955 27.0958 40.7515 27.0958C26.2075 27.0958 14.3995 38.9038 14.3995 53.4478C14.3995 66.5518 23.7595 77.2078 36.1435 79.3678Z" fill="#1E81C4"/>
<path id="Vector_2" d="M98.6396 79.3682C94.0316 87.8642 87.1196 96.6482 77.7596 105.864C76.8956 106.728 76.6076 107.88 77.0396 109.032C77.4716 110.04 78.4796 110.76 79.6316 110.76C108 110.904 129.6 80.0882 129.6 53.4482C129.6 46.1042 126.576 39.6242 121.968 34.8722C117.216 30.1202 110.592 27.0962 103.248 27.0962C88.7036 27.0962 76.8956 38.9042 76.8956 53.4482C76.8956 66.5522 86.3996 77.2082 98.6396 79.3682Z" fill="#1E81C4"/>
</g>
</svg>
