<svg width="72" height="36" viewBox="0 0 72 36" fill="none" xmlns="http://www.w3.org/2000/svg">
<g id="small invite button">
<rect id="Rectangle 402" width="72" height="36" rx="18" fill="#9A3596"/>
<g id="Group 37083">
<g id="Vector_2">
<path d="M26.6125 19.6513C30.2479 19.6513 33.195 16.5953 33.195 12.8256C33.195 9.05594 30.2479 6 26.6125 6C22.977 6 20.0299 9.05594 20.0299 12.8256C20.0299 16.5953 22.977 19.6513 26.6125 19.6513Z" fill="white"/>
<path d="M36.2248 26.9091C35.5717 24.7976 34.289 22.9557 32.5615 21.649C30.8339 20.3422 28.7507 19.6381 26.6124 19.6381C24.474 19.6381 22.3909 20.3422 20.6633 21.649C18.9357 22.9557 17.653 24.7976 17 26.9091H36.2248Z" fill="white"/>
<path d="M36.2248 26.9091C35.5717 24.7976 34.289 22.9557 32.5615 21.649C30.8339 20.3422 28.7507 19.6381 26.6124 19.6381C24.474 19.6381 22.3909 20.3422 20.6633 21.649C18.9357 22.9557 17.653 24.7976 17 26.9091H36.2248Z" fill="white"/>
<path d="M26.6125 19.6513C30.2479 19.6513 33.195 16.5953 33.195 12.8256C33.195 9.05594 30.2479 6 26.6125 6C22.977 6 20.0299 9.05594 20.0299 12.8256C20.0299 16.5953 22.977 19.6513 26.6125 19.6513Z" fill="white"/>
<path d="M28.7617 15.4666C28.7617 15.4666 28.2155 16.581 26.6123 16.581C25.009 16.581 24.4629 15.4666 24.4629 15.4666" fill="white"/>
<path d="M33.0756 11.5261C33.0608 11.5262 33.0462 11.5262 33.0316 11.5262C31.1182 11.5262 29.4003 10.6582 28.2242 9.28124C27.0482 10.6583 25.3303 11.5263 23.4169 11.5263C22.3059 11.5263 21.2607 11.2336 20.3493 10.7185C21.2056 7.97999 23.6862 6 26.6125 6C29.8193 6 32.4903 8.37793 33.0756 11.5261Z" fill="white"/>
<path d="M33.0756 11.5261C33.0608 11.5262 33.0462 11.5262 33.0316 11.5262C31.1182 11.5262 29.4003 10.6582 28.2242 9.28124C27.0482 10.6583 25.3303 11.5263 23.4169 11.5263C22.3059 11.5263 21.2607 11.2336 20.3493 10.7185C21.2056 7.97999 23.6862 6 26.6125 6C29.8193 6 32.4903 8.37793 33.0756 11.5261Z" fill="white"/>
<path d="M26.6125 6C30.2479 6 33.195 9.05594 33.195 12.8256C33.195 16.5953 30.2479 19.6513 26.6125 19.6513C22.977 19.6513 20.0299 16.5953 20.0299 12.8256C20.0299 9.05594 22.977 6 26.6125 6ZM26.6125 6C23.6862 6 21.2056 7.97999 20.3493 10.7185C21.2607 11.2336 22.3059 11.5263 23.4169 11.5263C25.3303 11.5263 27.0482 10.6583 28.2242 9.28124C29.4003 10.6582 31.1182 11.5262 33.0316 11.5262C33.0462 11.5262 33.0608 11.5262 33.0756 11.5261C32.4903 8.37793 29.8193 6 26.6125 6ZM28.7617 15.4666C28.7617 15.4666 28.2155 16.581 26.6123 16.581C25.009 16.581 24.4629 15.4666 24.4629 15.4666M36.2248 26.9091C35.5717 24.7976 34.289 22.9557 32.5615 21.649C30.8339 20.3422 28.7507 19.6381 26.6124 19.6381C24.474 19.6381 22.3909 20.3422 20.6633 21.649C18.9357 22.9557 17.653 24.7976 17 26.9091H36.2248Z" stroke="#9A3596" stroke-linecap="round" stroke-linejoin="round"/>
</g>
<g id="plus sign">
<g id="Vector_4">
<path d="M46.3174 14V23V14Z" fill="#EADBDB"/>
<path d="M46.3174 14V23" stroke="white" stroke-linecap="round" stroke-linejoin="round"/>
</g>
<g id="Vector_5">
<path d="M41.9922 18.5H50.6434H41.9922Z" fill="#EADBDB"/>
<path d="M41.9922 18.5H50.6434" stroke="white" stroke-linecap="round" stroke-linejoin="round"/>
</g>
</g>
</g>
</g>
</svg>
