<svg width="147" height="30" viewBox="0 0 147 30" fill="none" xmlns="http://www.w3.org/2000/svg">
<g id="Star system 1">
<path id="Vector" d="M72.1069 0L74.3486 6.90982H81.6024L75.734 11.1804L77.9753 18.0902L72.1069 13.8196L66.2384 18.0902L68.4797 11.1804L62.6113 6.90982H69.8651L72.1069 0Z" fill="#EAAF01"/>
<path id="Vector_2" d="M103.167 0L105.409 6.90982H112.663L106.795 11.1804L109.036 18.0902L103.167 13.8196L97.299 18.0902L99.5403 11.1804L93.6719 6.90982H100.926L103.167 0Z" fill="#EAAF01"/>
<path id="Vector_3" d="M134.23 0L136.472 6.90982H143.725L137.857 11.1804L140.098 18.0902L134.23 13.8196L128.361 18.0902L130.603 11.1804L124.734 6.90982H131.988L134.23 0Z" fill="#EAAF01"/>
</g>
</svg>
